# AST/ASF file generated using VICON BodyLanguage
# -----------------------------------------------
:version 1.10
:name VICON
:units
  mass 1.0
  length 0.45
  angle deg
:documentation
   .ast/.asf automatically generated from VICON data using
   VICON BodyBuilder and BodyLanguage model FoxedUp or BRILLIANT.MOD
:root
   order TX TY TZ RX RY RZ
   axis XYZ
   position 0 0 0  
   orientation 0 0 0 
:bonedata
  begin
     id 1 
     name lhipjoint
     direction 0.588788 -0.725889 0.355548 
     length 2.37778 
     axis 0 0 0  XYZ
  end
  begin
     id 2 
     name lfemur
     direction 0.34202 -0.939693 0  
     length 6.86393  
     axis 0 0 20  XYZ
    dof rx ry rz
    limits (-160.0 20.0)
           (-70.0 70.0)
           (-60.0 70.0)
  end
  begin
     id 3 
     name ltibia
     direction 0.34202 -0.939693 0   
     length 7.32851   
     axis 0 0 20   XYZ
    dof rx
    limits (-10.0 170.0)
  end
  begin
     id 4 
     name lfoot
     direction 0.0626533 -0.172138 0.983078   
     length 1.98929   
     axis -90 7.62852e-016 20   XYZ
    dof rx rz
    limits (-45.0 90.0)
           (-70.0 20.0)
  end
  begin
     id 5 
     name ltoes
     direction 1.53647e-011 -4.21734e-011 1   
     length 1.00479   
     axis -90 7.62852e-016 20   XYZ
    dof rx
    limits (-90.0 20.0)
  end
  begin
     id 6 
     name rhipjoint
     direction -0.59141 -0.724168 0.354705   
     length 2.38343  
     axis 0 0 0  XYZ 
  end
  begin
     id 7 
     name rfemur
     direction -0.34202 -0.939693 0   
     length 6.95589   
     axis 0 0 -20   XYZ
    dof rx ry rz
    limits (-160.0 20.0)
           (-70.0 70.0)
           (-70.0 60.0)
  end
  begin
     id 8 
     name rtibia
     direction -0.34202 -0.939693 0   
     length 7.32327   
     axis 0 0 -20   XYZ
    dof rx
    limits (-10.0 170.0)
 end
 begin
     id 9 
     name rfoot
     direction -0.0660461 -0.18146 0.981178   
     length 1.85272  
     axis -90 -7.62852e-016 -20   XYZ
    dof rx rz
    limits (-45.0 90.0)
           (-20.0 70.0)
  end
  begin
     id 10 
     name rtoes
     direction -1.53586e-011 -4.21988e-011 1   
     length 0.93746   
     axis -90 -7.62852e-016 -20   XYZ
    dof rx
    limits (-90.0 20.0)
  end
  begin
     id 11 
     name lowerback
     direction -0.0107982 0.991059 0.13299   
     length 1.98691   
     axis 0 0 0   XYZ
    dof rx ry rz
    limits (-20.0 45.0)
           (-30.0 30.0)
           (-30.0 30.0)
  end
  begin
     id 12 
     name upperback
     direction 0.0076296 0.999916 0.0104576   
     length 1.99501   
     axis 0 0 0   XYZ
    dof rx ry rz
    limits (-20.0 45.0)
           (-30.0 30.0)
           (-30.0 30.0)
  end
  begin
     id 13 
     name thorax
     direction 0.01176 0.998615 -0.0512909   
     length 2.03144   
     axis 0 0 0   XYZ
    dof rx ry rz
    limits (-20.0 45.0)
           (-30.0 30.0)
           (-30.0 30.0)
  end
  begin
     id 14 
     name lowerneck
     direction -0.0171909 0.999644 0.0204011   
     length 1.71818   
     axis 0 0 0   XYZ
    dof rx ry rz
    limits (-20.0 45.0)
           (-30.0 30.0)
           (-30.0 30.0)
  end
  begin
     id 15 
     name upperneck
     direction 0.0250902 0.997482 -0.0663316   
     length 1.66199   
     axis 0 0 0   XYZ
    dof rx ry rz
    limits (-20.0 45.0)
           (-30.0 30.0)
           (-30.0 30.0)
  end
  begin
     id 16
     name head
     direction 0.00881535 0.99956 -0.0283365  
     length 1.81545  
     axis 0 0 0   XYZ
    dof rx ry rz
    limits (-20.0 45.0)
           (-30.0 30.0)
           (-30.0 30.0)
  end
  begin
     id 17 
     name lclavicle
     direction 0.840411 0.486876 -0.238035  
     length 3.30409  
     axis 0 0 0   XYZ
    dof ry rz
    limits (-20.0 10.0)
           (0.0 20.0)
  end
  begin
     id 18 
     name lhumerus
     direction 1 -4.48977e-011 -5.16239e-027   
     length 4.62672   
     axis 180 -30 -90   XYZ
    dof rx ry rz
    limits (-60.0 90.0)
           (-90.0 90.0)
           (-90.0 90.0)
  end
  begin
     id 19
     name lradius
     direction 1 -4.48977e-011 -8.71171e-027   
     length 3.11018   
     axis 180 -30 -90   XYZ
    dof rx
    limits (-10.0 170.0)
  end
  begin
     id 20
     name lwrist
     direction 1 -4.48912e-011 -1.03764e-026   
     length 1.55509   
     axis 9.09556e-015 90 90   XYZ
    dof ry
    limits (-180.0 0.0)
 end
  begin
     id 21 
     name lhand
     direction 1 -4.49072e-011 -2.07528e-026   
     length 0.743834   
     axis 1.3242e-014 90 90   XYZ
    dof rx rz
    limits (-90.0 90.0)
           (-45.0 45.0)
  end
  begin
     id 22 
     name lfingers
     direction 1 -4.48909e-011 -4.15056e-026   
     length 0.599698   
     axis 2.64841e-014 90 90   XYZ
    dof rx
    limits (0.0 90.0)
  end
  begin
     id 23
     name lthumb
     direction 0.707107 -6.35013e-011 0.707107   
     length 0.86105   
     axis -90 45 2.85299e-015   XYZ
    dof rx rz
    limits (-45.0 45.0)
           (-45.0 45.0)
  end
  begin
     id 24 
     name rclavicle
     direction -0.835208 0.500237 -0.228452   
     length 3.2716  
     axis 0 0 0   XYZ 
    dof ry rz
    limits (-10.0 20.0)
           (-20.0 0.0)
  end
  begin
     id 25 
     name rhumerus
     direction -1 -4.48978e-011 -5.1953e-028  
     length 4.55919   
     axis 180 30 90   XYZ
    dof rx ry rz
    limits (-90.0 60.0)
           (-90.0 90.0)
           (-90.0 90.0)
  end
  begin
     id 26 
     name rradius
     direction -1 -4.48961e-011 -5.99546e-027   
     length 3.22748   
     axis 180 30 90   XYZ
    dof rx
    limits (-10.0 170.0)
  end
  begin
     id 27 
     name rwrist
     direction -1 -4.48986e-011 -1.03764e-026   
     length 1.61374   
     axis 9.09556e-015 -90 -90   XYZ
    dof ry
    limits (-180.0 0.0)
  end
  begin
     id 28
     name rhand
     direction -1 -4.4899e-011 -2.07528e-026   
     length 0.700882   
     axis 1.3242e-014 -90 -90   XYZ
    dof rx rz
    limits (-90.0 90.0)
           (-45.0 45.0)
  end
  begin
     id 29
     name rfingers
     direction -1 -4.48991e-011 -4.15056e-026   
     length 0.565069   
     axis 2.64841e-014 -90 -90   XYZ
    dof rx
    limits (0.0 90.0)
  end
  begin
     id 30
     name rthumb
     direction -0.707107 -6.34804e-011 0.707107   
     length 0.811329   
     axis -90 -45 -2.85299e-015   XYZ
    dof rx rz
    limits (-45.0 45.0)
           (-45.0 45.0)
  end
:hierarchy
  begin
    root lhipjoint rhipjoint lowerback
    lhipjoint lfemur
    lfemur ltibia
    ltibia lfoot
    lfoot ltoes
    rhipjoint rfemur
    rfemur rtibia
    rtibia rfoot
    rfoot rtoes
    lowerback upperback
    upperback thorax
    thorax lowerneck lclavicle rclavicle
    lowerneck upperneck
    upperneck head
    lclavicle lhumerus
    lhumerus lradius
    lradius lwrist
    lwrist lhand lthumb
    lhand lfingers
    rclavicle rhumerus
    rhumerus rradius
    rradius rwrist
    rwrist rhand rthumb
    rhand rfingers
  end

#!OML:ASF F:\VICON\USERDATA\INSTALL\SteveWalk\SteveWalk.ASF
:FULLY-SPECIFIED
:DEGREES
337
root 0.133308 16.1531 31.2103 16.5498 4.83102 2.44702
lowerback -14.489 -1.87339 -4.21496
upperback -4.92077 -1.86673 -0.20324
thorax 3.03817 -0.908822 1.85132
lowerneck -3.13935 -1.49447 -1.69837
upperneck 8.98322 -2.38216 5.43039
head 3.57743 -1.02599 2.00209
rclavicle -6.71015e-015 -1.2921e-014
rhumerus -66.9584 -36.575 -44.0672
rradius 12.8494
rwrist 29.4243
rhand -8.6201 112.421
rfingers 7.12502
rthumb 17.3121 501.67
lclavicle -6.71015e-015 -1.2921e-014
lhumerus -19.5233 -7.54972 84.9163
lradius 39.3472
lwrist 16.2923
lhand -22.069 -14.0945
lfingers 7.12502
lthumb 4.34214 15.841
rfemur -48.8518 -5.33748 21.3718
rtibia 38.5437
rfoot -13.5708 -5.38251
rtoes -2.18461
lfemur -14.4767 7.25526 -25.5034
ltibia 27.7619
lfoot -26.026 -9.76307
ltoes -3.66957
338
root 0.125927 16.1287 31.4111 16.4924 5.2847 2.33745
lowerback -14.5869 -1.96503 -4.16673
upperback -4.70686 -1.9889 -0.0850625
thorax 3.32677 -0.976941 1.92079
lowerneck -3.38454 -1.61304 -1.75017
upperneck 8.85271 -2.53146 5.4267
head 3.58672 -1.09994 2.00248
rclavicle 3.90037e-015 3.05134e-014
rhumerus -67.9561 -36.4653 -43.0519
rradius 12.9234
rwrist 29.3607
rhand -8.65594 112.381
rfingers 7.12502
rthumb 17.2776 501.633
lclavicle 3.90037e-015 3.05134e-014
lhumerus -18.3559 -8.7787 84.8121
lradius 40.6233
lwrist 16.7155
lhand -22.3199 -14.5305
lfingers 7.12502
lthumb 4.09982 15.4098
rfemur -48.6441 -5.23565 21.4592
rtibia 35.395
rfoot -13.0392 -5.23832
rtoes -6.19995
lfemur -13.1895 7.3533 -25.0611
ltibia 26.7951
lfoot -26.5155 -9.8059
ltoes -5.40847
339
root 0.124075 16.1163 31.6117 16.4531 5.77945 2.34869
lowerback -14.5229 -2.0912 -4.13378
upperback -4.64108 -2.16335 -0.0389381
thorax 3.37368 -1.06488 1.92037
lowerneck -3.15641 -1.65138 -1.67007
upperneck 8.5263 -2.56713 5.34934
head 3.42692 -1.12538 1.95702
rclavicle 5.38524e-015 1.12313e-014
rhumerus -68.7024 -35.8424 -42.8112
rradius 13.1027
rwrist 28.4519
rhand -8.94238 112.554
rfingers 7.12502
rthumb 17.0019 501.83
lclavicle 5.38524e-015 1.12313e-014
lhumerus -17.4846 -9.97914 84.6041
lradius 41.9168
lwrist 17.2037
lhand -22.512 -14.7838
lfingers 7.12502
lthumb 3.91433 15.16
rfemur -48.4863 -5.27032 21.3715
rtibia 32.3923
rfoot -12.5516 -4.66398
rtoes -8.00263
lfemur -11.9771 7.47249 -24.7429
ltibia 25.8523
lfoot -26.8888 -10.1461
ltoes -6.83613
340
root 0.118882 16.103 31.8097 16.5201 5.9757 2.92322
lowerback -14.2495 -2.21903 -4.74822
upperback -4.75452 -2.25807 -0.156786
thorax 3.12866 -1.10488 2.13611
lowerneck -3.1469 -1.86223 -1.80742
upperneck 8.51619 -2.86298 5.59288
head 3.4437 -1.26768 2.05218
rclavicle -1.65772e-014 -2.69353e-014
rhumerus -69.4101 -34.9495 -42.8888
rradius 13.3728
rwrist 27.0799
rhand -9.36768 112.719
rfingers 7.12502
rthumb 16.5925 502.03
lclavicle -1.65772e-014 -2.69353e-014
lhumerus -16.8146 -11.0406 84.3765
lradius 43.1185
lwrist 17.4426
lhand -22.4197 -15.0522
lfingers 7.12502
lthumb 4.00344 14.8899
rfemur -48.5084 -4.98632 20.4007
rtibia 29.5543
rfoot -11.9044 -3.74185
rtoes -6.96016
lfemur -10.7149 7.5113 -25.1054
ltibia 24.9354
lfoot -26.326 -10.7643
ltoes -5.85663
341
root 0.115087 16.0804 32.0085 16.6184 6.38983 3.02972
lowerback -14.0575 -2.30843 -4.79993
upperback -4.87102 -2.38301 -0.148079
thorax 2.91383 -1.16033 2.16106
lowerneck -2.83382 -1.88994 -1.72465
upperneck 8.336 -2.89107 5.51833
head 3.31858 -1.28871 2.0098
rclavicle 8.82811e-015 9.93923e-015
rhumerus -70.3063 -34.465 -42.2975
rradius 13.4253
rwrist 26.3677
rhand -9.58986 112.499
rfingers 7.12502
rthumb 16.3786 501.828
lclavicle 8.82811e-015 9.93923e-015
lhumerus -16.0703 -11.9509 84.18
lradius 44.1419
lwrist 17.682
lhand -22.453 -15.4468
lfingers 7.12502
lthumb 3.97137 14.496
rfemur -48.5461 -4.81333 20.0297
rtibia 27.0438
rfoot -11.4756 -2.788
rtoes -5.94613
lfemur -9.4122 7.15655 -24.9264
ltibia 23.9033
lfoot -25.7459 -10.8596
ltoes -5.46213
342
root 0.121032 16.0608 32.2177 16.6968 7.21545 2.72983
lowerback -14.2322 -2.45235 -4.23282
upperback -4.81976 -2.64328 -0.0254196
thorax 3.06452 -1.29408 1.91924
lowerneck -2.80413 -1.87293 -1.61062
upperneck 8.14378 -2.85645 5.40545
head 3.23957 -1.27497 1.9508
rclavicle -2.17864e-014 -2.44505e-014
rhumerus -70.9164 -34.1689 -41.7511
rradius 13.3001
rwrist 25.7696
rhand -9.71344 112.268
rfingers 7.12502
rthumb 16.2596 501.606
lclavicle -2.17864e-014 -2.44505e-014
lhumerus -15.1281 -12.7192 83.9416
lradius 45.0856
lwrist 18.0657
lhand -22.6687 -15.5101
lfingers 7.12502
lthumb 3.76308 14.4364
rfemur -48.5863 -5.2497 20.4128
rtibia 24.9395
rfoot -11.6521 -1.71014
rtoes -5.44831
lfemur -8.11053 6.59869 -24.2298
ltibia 22.8298
lfoot -25.6708 -10.5604
ltoes -8.21527
343
root 0.126665 16.0406 32.4305 16.9114 7.95755 2.88309
lowerback -14.5302 -2.66851 -4.15055
upperback -4.77725 -2.92351 0.00239928
thorax 3.28549 -1.43662 1.84095
lowerneck -2.90836 -1.87059 -1.58393
upperneck 8.02767 -2.84626 5.36801
head 3.21746 -1.27043 1.9325
rclavicle -5.41737e-015 7.71533e-015
rhumerus -70.8231 -33.3305 -42.6037
rradius 13.496
rwrist 24.0126
rhand -9.80321 112.34
rfingers 7.12502
rthumb 16.1731 501.685
lclavicle -5.41737e-015 7.71533e-015
lhumerus -14.2441 -13.2371 83.6982
lradius 45.9876
lwrist 18.2114
lhand -22.6489 -15.5006
lfingers 7.12502
lthumb 3.78214 14.4456
rfemur -48.7612 -5.80184 20.3379
rtibia 23.0848
rfoot -11.6938 -0.789637
rtoes -7.80447
lfemur -6.95687 6.05166 -24.0453
ltibia 21.874
lfoot -25.7481 -9.9947
ltoes -12.812
344
root 0.128996 16.0201 32.6377 17.2655 8.39162 3.4667
lowerback -14.6854 -2.88804 -4.59398
upperback -4.87565 -3.13977 -0.0644838
thorax 3.29604 -1.5411 1.97723
lowerneck -2.97351 -1.86663 -1.48493
upperneck 8.04047 -2.8373 5.24585
head 3.22848 -1.2661 1.87389
rclavicle 2.41949e-014 -1.46976e-014
rhumerus -70.7428 -32.3653 -43.5659
rradius 13.8072
rwrist 22.5387
rhand -9.77166 112.514
rfingers 7.12502
rthumb 16.2035 501.857
lclavicle 2.41949e-014 -1.46976e-014
lhumerus -13.666 -13.481 83.5264
lradius 46.9357
lwrist 18.0209
lhand -22.5163 -15.731
lfingers 7.12502
lthumb 3.91024 14.2129
rfemur -49.0956 -6.13091 19.6744
rtibia 21.495
rfoot -11.2833 -0.0915743
rtoes -16.2608
lfemur -5.99831 5.5304 -24.3947
ltibia 20.9887
lfoot -25.4873 -9.92974
ltoes -13.9703
345
root 0.13898 16.0023 32.8512 17.4981 8.89049 3.64447
lowerback -14.8492 -3.0543 -4.49033
upperback -4.94381 -3.36699 -0.023011
thorax 3.32479 -1.65268 1.91596
lowerneck -2.97612 -1.88528 -1.50218
upperneck 8.06412 -2.85314 5.13309
head 3.23518 -1.2781 1.83876
rclavicle -3.35812e-014 3.13086e-015
rhumerus -70.9143 -31.7013 -43.7296
rradius 13.8443
rwrist 22.0013
rhand -10.0215 112.711
rfingers 7.12502
rthumb 15.9629 502.073
lclavicle -3.35812e-014 3.13086e-015
lhumerus -13.255 -13.7331 83.3895
lradius 47.9985
lwrist 18.1088
lhand -22.6345 -15.9936
lfingers 7.12502
lthumb 3.79609 13.9523
rfemur -49.4613 -6.54445 19.4601
rtibia 20.2814
rfoot -12.6666 1.71069
rtoes -4.23255
lfemur -4.99759 5.01247 -24.2978
ltibia 20.1775
lfoot -25.0345 -10.2363
ltoes -13.8956
346
root 0.140568 15.9754 33.0715 17.608 9.2277 3.6727
lowerback -14.9676 -3.15087 -4.31924
upperback -4.9687 -3.51576 0.0501492
thorax 3.36734 -1.72652 1.86465
lowerneck -3.23149 -1.94565 -1.74071
upperneck 8.27967 -2.93333 5.18955
head 3.36851 -1.31692 1.89855
rclavicle 6.16038e-015 2.22639e-014
rhumerus -71.0047 -31.0331 -44.0665
rradius 13.9283
rwrist 21.1714
rhand -10.4948 113.092
rfingers 7.12502
rthumb 15.5071 502.49
lclavicle 6.16038e-015 2.22639e-014
lhumerus -12.8452 -14.0678 83.2108
lradius 48.9764
lwrist 18.5033
lhand -22.7412 -16.1084
lfingers 7.12502
lthumb 3.69305 13.8394
rfemur -49.6407 -6.47262 19.2184
rtibia 19.373
rfoot -9.53769 1.91138
rtoes -21.1372
lfemur -3.99515 4.59059 -24.0379
ltibia 19.5898
lfoot -24.7801 -10.0084
ltoes -16.5807
